<?xml version="1.0" encoding="UTF-8" standalone="no"?>
<!DOCTYPE svg PUBLIC "-//W3C//DTD SVG 20010904//EN" "http://www.w3.org/TR/2001/REC-SVG-20010904/DTD/svg10.dtd">
<svg xmlns="http://www.w3.org/2000/svg" viewBox="0 0 64 64">
	<style>
	path {
		fill: #222;
	}
	@media (prefers-color-scheme: dark) {
		path {
			fill: #fff;
		}
	}

	</style>
	<path fill="#222" d="M 49.96,23.88 C 49.96,23.88 26.01,47.83 26.01,47.83 25.81,48.03 25.57,48.18 25.30,48.27 25.30,48.27 14.39,51.91 14.39,51.91 14.21,51.97 14.01,52.00 13.82,52.00 13.62,52.00 13.43,51.97 13.24,51.91 12.29,51.59 11.78,50.56 12.09,49.61 12.09,49.61 15.73,38.70 15.73,38.70 15.82,38.43 15.97,38.19 16.17,37.99 16.17,37.99 40.12,14.04 40.12,14.04 41.42,12.73 43.19,12.00 45.04,12.00 46.89,12.00 48.66,12.73 49.96,14.04 52.68,16.76 52.68,21.16 49.96,23.88 Z" />
</svg>
